<?xml version="1.0" encoding="utf-8"?>
<!-- Generator: Adobe Illustrator 17.0.0, SVG Export Plug-In . SVG Version: 6.00 Build 0)  -->
<!DOCTYPE svg PUBLIC "-//W3C//DTD SVG 1.1//EN" "http://www.w3.org/Graphics/SVG/1.1/DTD/svg11.dtd">
<svg version="1.1" id="Layer_1" xmlns="http://www.w3.org/2000/svg" xmlns:xlink="http://www.w3.org/1999/xlink" x="0px" y="0px"
	 width="20px" height="20px" viewBox="0 0 20 20" enable-background="new 0 0 20 20" xml:space="preserve">
<g id="Ellipse_1">
	<g>
		<path fill-rule="evenodd" clip-rule="evenodd" fill="#D2D8D8" d="M9.979,0.003C4.468,0.003,0,4.471,0,9.982s4.468,9.98,9.979,9.98
			s9.98-4.468,9.98-9.98S15.491,0.003,9.979,0.003z M9.98,17.973c-4.413,0-7.99-3.577-7.99-7.99c0-4.413,3.577-7.99,7.99-7.99
			s7.99,3.577,7.99,7.99C17.97,14.395,14.393,17.973,9.98,17.973z"/>
	</g>
</g>
<g id="Shape_11">
	<g>
		<path fill-rule="evenodd" clip-rule="evenodd" fill="#D2D8D8" d="M13.71,5.99c-0.05,0-0.096,0.015-0.128,0.033l-7.854,4.189
			c-0.087,0.046-0.139,0.136-0.139,0.231c0,0.021,0.003,0.042,0.008,0.063c0.029,0.117,0.134,0.198,0.254,0.198h3.406v3.406
			c0,0.12,0.082,0.225,0.198,0.254c0.021,0.005,0.042,0.008,0.064,0.008c0.095,0,0.185-0.052,0.231-0.139l4.187-7.851
			c0.022-0.039,0.035-0.083,0.035-0.131C13.972,6.109,13.85,5.99,13.71,5.99z"/>
	</g>
</g>
</svg>
